<svg xmlns="http://www.w3.org/2000/svg" version="1.1" xmlns:xlink="http://www.w3.org/1999/xlink" xmlns:svgjs="http://svgjs.dev/svgjs" width="1440" height="560" preserveAspectRatio="none" viewBox="0 0 1440 560"><g mask="url(&quot;#SvgjsMask1009&quot;)" fill="none"><path d="M535.29 0C548.6 1.05 549.08 11.05 560 11.05C565.56 11.05 561.61 0.52 568.24 0C631.61 -5 634.12 0 700 0C770 0 770 0 840 0C877.34 0 914.67 -21.55 914.67 0C914.67 43.07 894.77 104.02 840 129.23C787.43 153.43 765.51 95.12 700 98.82C670.06 100.51 657.63 111.14 649.09 140C630.82 201.73 628.75 220.62 646.38 280C654.21 306.37 675 311.5 700 311.5C718.39 311.5 718.48 297.49 733.16 280C788.48 214.07 786.8 144.67 840 144.67C892.94 144.67 894.35 211.18 945.45 280C964.35 305.45 963.17 333.2 980 333.2C996.47 333.2 1012.05 309.16 1012.05 280C1012.05 212.56 980.19 210.04 980 140C979.81 70.04 971.46 39.82 1011.28 0C1041.46 -30.18 1065.64 0 1120 0C1190 0 1190 0 1260 0C1330 0 1330 0 1400 0C1470 0 1505 -35 1540 0C1575 35 1540 70 1540 140C1540 186.67 1560.5 198.64 1540 233.33C1519.14 268.64 1457.27 258.24 1457.27 280C1457.27 300.93 1520.38 285.53 1540 318.72C1561.75 355.53 1540 369.36 1540 420C1540 474.09 1554.23 481.21 1540 528.18C1533.02 551.21 1522.23 554.4 1497.58 560C1452.23 570.31 1448.79 560 1400 560C1330 560 1330 560 1260 560C1192.91 560 1179.62 575.37 1125.83 560C1109.62 555.37 1129.55 520 1120 520C1106.64 520 1105.29 552.77 1080 560C1035.29 572.77 1030 560 980 560C910 560 910 560 840 560C770 560 770 560 700 560C630 560 630 560 560 560C490 560 490 560 420 560C350 560 350 560 280 560C210 560 210 560 140 560C70 560 35 595 0 560C-35 525 0 490 0 420C0 350 0 350 0 280C0 210 0 210 0 140C0 70 -35 35 0 0C35 -35 70 0 140 0C210 0 210 0 280 0C350 0 350 0 420 0C477.64 0 478.6 -4.47 535.29 0" stroke="rgba(246, 173, 101, 1)" stroke-width="2"></path><path d="M140 193.85C98.69 196.61 80.74 232.1 76 280C69.54 345.18 90.9 353.92 117.6 420C122.9 433.1 127.74 438.36 140 438.36C157.61 438.36 161.95 433.69 177.33 420C231.95 371.4 226.28 364.15 280 313.79C300.95 294.15 326.67 292.85 326.67 280C326.67 269.15 302 276.54 280 266.39C208.66 233.47 200.69 189.8 140 193.85" stroke="rgba(246, 173, 101, 1)" stroke-width="2"></path><path d="M1260 244.51C1241.15 244.51 1241.66 260.16 1229.27 280C1186.87 347.9 1141.52 368 1150.43 420C1156.89 457.69 1206.63 459.38 1260 459.38C1298.47 459.38 1321.01 453.61 1334.12 420C1356.01 363.92 1353.75 336.23 1330 280C1316.69 248.49 1291.51 244.51 1260 244.51" stroke="rgba(246, 173, 101, 1)" stroke-width="2"></path><path d="M840 408.89C833.94 408.89 829.55 413.66 829.55 420C829.55 429.82 833.26 441.21 840 441.21C848.2 441.21 859.44 429.09 859.44 420C859.44 412.93 848.89 408.89 840 408.89" stroke="rgba(246, 173, 101, 1)" stroke-width="2"></path><path d="M140 84.74C104.73 84.74 92.47 105.37 59.23 140C22.47 178.3 16.12 230.59 0 230.59C-13.49 230.59 0 185.3 0 140C0 70 -35 35 0 0C35 -35 70 0 140 0C210 0 210 0 280 0C329.74 0 352.79 -28.68 379.47 0C417.91 41.32 434.39 87.1 410.23 140C384.66 195.99 342.9 217.78 280 217.78C226.87 217.78 224.11 183.64 178.18 140C154.11 117.12 164.21 84.74 140 84.74" stroke="rgba(246, 173, 101, 1)" stroke-width="2"></path><path d="M452.31 140C460.16 102.8 512.22 103.16 560 103.16C578.79 103.16 584.01 118.65 585.45 140C589.97 207.07 544.06 227.66 571.91 280C601.33 335.28 638.83 313.55 700 355.25C741.53 383.55 777.31 382.92 777.31 420C777.31 468.15 739.81 473.78 700 525.71C686.15 543.78 690.5 554.98 670 560C620.5 572.12 615 560 560 560C494.47 560 491.38 565.85 428.94 560C421.38 559.29 427.31 546.88 420 546.88C380.84 546.88 378.2 556.05 336 560C308.2 562.61 308 560 280 560C210 560 210 560 140 560C70 560 35 595 0 560C-35 525 0 490 0 420C0 368.26 -11.33 316.52 0 316.52C12.47 316.52 13.44 376.26 47.6 420C83.44 465.87 86.55 476.42 140 495.74C202.75 518.42 232.33 527.58 280 504C308.9 489.71 269.08 451.86 293.13 420C339.08 359.11 351.48 360.29 420 318.5C466.25 290.29 516.02 316.74 522.67 280C532.17 227.49 441.5 191.22 452.31 140" stroke="rgba(246, 173, 101, 1)" stroke-width="2"></path><path d="M700 47.35C664.8 47.35 636.86 13.15 636.86 0C636.86 -10.52 668.43 0 700 0C767.09 0 834.17 -11.49 834.17 0C834.17 12.18 763.46 47.35 700 47.35" stroke="rgba(246, 173, 101, 1)" stroke-width="2"></path><path d="M779.21 280C779.21 241.86 809.73 203 840 203C870.12 203 900 241.86 900 280C900 317.02 870.12 353.33 840 353.33C809.72 353.33 779.21 317.03 779.21 280" stroke="rgba(246, 173, 101, 1)" stroke-width="2"></path><path d="M956.67 420C956.67 409.71 967.73 403.2 980 403.2C995.55 403.2 1012.31 409.11 1012.31 420C1012.31 433.66 994.86 452.31 980 452.31C967.04 452.31 956.67 434.26 956.67 420" stroke="rgba(246, 173, 101, 1)" stroke-width="2"></path><path d="M1424.23 420C1475.46 381.2 1501 355.96 1540 355.96C1558.88 355.96 1540 387.98 1540 420C1540 454.21 1557.39 462.9 1540 488.41C1509.67 532.9 1495.52 533.94 1444.55 560C1425.52 569.73 1422.28 560 1400 560C1330 560 1330 560 1260 560C1229.38 560 1198.75 570.21 1198.75 560C1198.75 547.24 1225.9 530.67 1260 514.06C1326.52 481.67 1338.01 497.5 1400 462C1420.12 450.47 1405.46 434.22 1424.23 420" stroke="rgba(246, 173, 101, 1)" stroke-width="2"></path><path d="M812 560C812 556.67 826.58 547.27 840 547.27C849.71 547.27 858.26 556.5 858.26 560C858.26 562.87 849.13 560 840 560C826 560 812 563.03 812 560" stroke="rgba(246, 173, 101, 1)" stroke-width="2"></path><path d="M70 0C70 4.44 28.17 17.5 0 17.5C-6.83 17.5 -7 1.75 0 0C28 -7 70 -4.31 70 0" stroke="rgba(246, 173, 101, 1)" stroke-width="2"></path><path d="M241.82 140C215.6 76.62 197.17 47.06 210 0C216.26 -22.94 245 0 280 0C283.68 0 286.2 -3.36 287.37 0C310.62 66.64 331.49 79.13 328.84 140C327.81 163.72 303.59 169.17 280 169.17C260.08 169.17 250.6 161.21 241.82 140" stroke="rgba(246, 173, 101, 1)" stroke-width="2"></path><path d="M1120 70C1097.42 70 1085.74 24.31 1085.74 0C1085.74 -10.69 1102.87 0 1120 0C1153.54 0 1187.08 -14.31 1187.08 0C1187.08 20.69 1148.09 70 1120 70" stroke="rgba(246, 173, 101, 1)" stroke-width="2"></path><path d="M1243.85 140C1243.85 134.12 1249.47 127.36 1260 125C1327.55 109.86 1329.69 108.26 1400 105C1469.69 101.76 1481.65 97.41 1540 112C1551.65 114.91 1540 126 1540 140C1540 141.8 1541.75 143.44 1540 143.59C1471.75 149.44 1470.03 151.42 1400 152C1330.03 152.58 1329.54 151.26 1260 145.92C1251.46 145.26 1243.85 144.58 1243.85 140" stroke="rgba(246, 173, 101, 1)" stroke-width="2"></path><path d="M825.26 280C825.26 270.75 832.66 261.33 840 261.33C847.3 261.33 854.55 270.75 854.55 280C854.55 288.98 847.3 297.78 840 297.78C832.66 297.78 825.26 288.98 825.26 280" stroke="rgba(246, 173, 101, 1)" stroke-width="2"></path><path d="M1096.39 280C1096.39 254.69 1108.13 227.03 1120 227.03C1131.89 227.03 1143.9 254.71 1143.9 280C1143.9 297.81 1131.9 313.22 1120 313.22C1108.15 313.22 1096.39 297.79 1096.39 280" stroke="rgba(246, 173, 101, 1)" stroke-width="2"></path><path d="M402.5 420C402.5 412.52 410.91 406 420 406C430.43 406 441.54 412.43 441.54 420C441.54 428.18 430.32 437.5 420 437.5C410.8 437.5 402.5 428.27 402.5 420" stroke="rgba(246, 173, 101, 1)" stroke-width="2"></path><path d="M650.59 420C650.59 406.96 676.86 399 700 399C714.1 399 725.07 407.97 725.07 420C725.07 435.62 715.41 454.29 700 454.29C678.17 454.29 650.59 434.61 650.59 420" stroke="rgba(246, 173, 101, 1)" stroke-width="2"></path><path d="M1491.54 420C1491.54 406.25 1523.67 393.19 1540 393.19C1547.9 393.19 1540 406.6 1540 420C1540 434.32 1548.17 448.64 1540 448.64C1523.94 448.64 1491.54 433.98 1491.54 420" stroke="rgba(246, 173, 101, 1)" stroke-width="2"></path><path d="M0 532C58.44 529.12 70.54 540.65 140 553.11C148.61 554.65 156.15 558.21 156.15 560C156.15 561.65 148.07 560 140 560C70 560 58.33 571.67 0 560C-11.67 557.67 -11.56 532.57 0 532" stroke="rgba(246, 173, 101, 1)" stroke-width="2"></path><path d="M503.4 560C503.4 540.43 533.09 495.12 560 495.12C585.14 495.12 607.5 539.61 607.5 560C607.5 572.05 583.75 560 560 560C531.7 560 503.4 572.87 503.4 560" stroke="rgba(246, 173, 101, 1)" stroke-width="2"></path></g><defs><mask id="SvgjsMask1009"><rect width="1440" height="560" fill="#ffffff"></rect></mask></defs></svg>